<?xml version="1.0" standalone="no"?>
<!DOCTYPE svg PUBLIC "-//W3C//DTD SVG 20010904//EN"
 "http://www.w3.org/TR/2001/REC-SVG-20010904/DTD/svg10.dtd">
<svg version="1.0" xmlns="http://www.w3.org/2000/svg"
 width="1080.000000pt" height="1080.000000pt" viewBox="0 0 1080.000000 1080.000000"
 preserveAspectRatio="xMidYMid meet">

<g transform="translate(0.000000,1080.000000) scale(0.100000,-0.100000)"
fill="#000000" stroke="none">
<path d="M5029 10056 c-637 -59 -1175 -211 -1727 -486 -900 -450 -1626 -1178
-2080 -2087 -553 -1104 -644 -2388 -252 -3563 227 -681 607 -1296 1115 -1806
380 -381 758 -655 1226 -890 1019 -510 2177 -629 3288 -339 897 234 1732 760
2349 1480 937 1093 1314 2552 1027 3971 -157 772 -513 1500 -1033 2109 -198
232 -505 516 -767 710 -669 496 -1450 800 -2285 890 -202 22 -676 28 -861 11z
m424 -442 c9 -10 120 -54 134 -54 14 0 103 -103 103 -120 0 -17 72 -108 92
-115 19 -7 98 -108 98 -127 0 -20 71 -118 85 -118 15 0 98 -124 100 -149 2
-22 63 -111 76 -111 12 0 89 -118 89 -137 0 -23 63 -123 77 -123 15 0 93 -129
93 -155 0 -22 48 -107 67 -118 20 -12 73 -122 73 -152 0 -29 46 -125 59 -125
15 0 63 -111 66 -150 2 -38 43 -140 55 -140 11 0 63 -147 56 -158 -8 -13 22
-113 40 -133 19 -21 53 -145 47 -169 -7 -24 16 -120 32 -140 17 -21 27 -79 30
-186 2 -61 8 -99 18 -115 17 -26 25 -142 12 -171 -4 -10 -4 -37 -1 -60 13
-101 18 -228 9 -240 -15 -19 -26 -145 -13 -150 12 -4 -5 -144 -19 -162 -13
-15 -31 -123 -25 -141 9 -21 -15 -147 -30 -165 -17 -19 -40 -116 -32 -135 3
-9 1 -37 -4 -63 -7 -34 -7 -57 3 -82 15 -43 76 -130 92 -130 16 0 96 -117 100
-145 3 -30 52 -115 71 -122 20 -7 74 -116 74 -148 0 -27 29 -91 61 -135 24
-32 60 -137 53 -154 -7 -19 21 -123 39 -140 16 -17 25 -77 29 -211 4 -167 1
-217 -20 -245 -22 -29 -56 -136 -47 -150 7 -11 -45 -150 -56 -150 -14 0 -69
-117 -63 -133 7 -18 -51 -136 -70 -143 -17 -6 -80 -123 -72 -131 8 -8 -52
-114 -78 -138 -32 -29 -79 -106 -80 -130 -1 -28 -76 -145 -93 -145 -7 0 -13
-3 -13 -7 0 -5 -16 -25 -35 -45 -19 -20 -35 -41 -35 -47 0 -29 -133 -79 -156
-60 -8 6 -20 9 -28 6 -18 -7 -39 -81 -33 -114 6 -33 -22 -143 -43 -168 -21
-25 -40 -91 -40 -139 0 -41 -31 -130 -54 -155 -27 -27 -86 -111 -86 -120 0
-11 -59 -39 -100 -47 -17 -4 -41 -2 -53 3 -49 22 -126 43 -139 38 -8 -3 -22
-30 -31 -59 -10 -30 -24 -59 -32 -66 -21 -17 -57 -99 -57 -129 -1 -32 -54
-151 -67 -151 -14 0 -70 -112 -69 -137 2 -22 -57 -129 -78 -141 -7 -4 -29 -31
-47 -60 -30 -47 -89 -102 -110 -102 -5 0 -20 -9 -34 -20 -28 -21 -76 -26 -117
-11 -13 6 -49 33 -78 60 -29 28 -57 51 -63 51 -14 0 -85 128 -85 153 0 24 -47
108 -68 121 -18 10 -71 126 -70 152 1 25 -49 134 -61 134 -13 0 -64 137 -56
150 9 15 -14 80 -29 80 -7 0 -32 -13 -54 -30 -35 -25 -51 -30 -98 -30 -50 0
-61 4 -112 43 -32 24 -65 46 -75 50 -22 8 -70 109 -69 146 1 36 -25 121 -42
140 -19 21 -48 137 -41 161 7 22 -19 130 -33 139 -5 3 -11 15 -13 26 -3 16
-14 21 -56 25 -30 3 -58 12 -65 21 -14 18 -93 71 -120 82 -22 8 -88 109 -88
134 0 22 -61 123 -75 123 -13 0 -85 123 -85 144 0 25 -53 126 -66 126 -14 0
-87 137 -79 149 7 12 -33 99 -57 123 -27 27 -71 127 -70 160 1 32 -33 129 -48
138 -19 12 -32 75 -36 185 -3 64 -9 112 -15 116 -15 9 -3 112 18 156 20 44 42
140 32 150 -10 11 29 133 50 158 23 25 51 98 51 130 0 30 60 155 75 155 13 0
65 94 65 118 0 21 76 142 90 142 14 0 90 104 90 122 0 9 18 38 40 64 23 27 43
60 47 73 7 29 -13 119 -31 141 -17 19 -40 134 -32 156 8 20 -12 137 -24 144
-16 10 -28 126 -23 208 5 69 3 85 -11 101 -15 16 -17 32 -11 98 3 43 6 110 5
148 -1 184 0 211 14 240 14 28 23 116 15 140 -7 22 14 130 33 166 11 22 21 65
24 105 5 79 27 169 47 192 19 22 47 120 40 139 -7 17 34 134 52 149 18 13 55
108 55 137 0 31 53 157 66 157 13 0 67 118 59 130 -7 11 62 150 74 150 14 0
70 105 68 127 -1 24 59 130 82 142 19 11 71 101 71 124 0 24 70 136 88 142 21
6 82 98 82 122 0 23 72 132 87 133 17 0 93 103 93 125 0 23 78 125 95 125 14
0 97 105 93 118 -4 12 84 122 97 122 5 0 37 25 70 56 33 31 69 60 80 64 24 10
109 13 118 4z"/>
<path d="M5389 9419 c-48 -18 -327 -377 -524 -674 -593 -896 -866 -1701 -825
-2436 11 -194 49 -441 109 -703 l39 -170 -77 -90 c-254 -302 -416 -618 -481
-943 -48 -240 -12 -397 180 -788 90 -185 232 -437 325 -581 58 -90 94 -112
160 -100 30 6 95 63 95 84 0 12 29 317 56 582 24 244 43 363 64 399 7 11 9 12
10 2 0 -7 11 -35 25 -62 l24 -50 -38 -152 c-71 -276 -108 -569 -96 -747 15
-212 139 -709 193 -772 19 -22 55 -23 72 -3 7 9 55 86 106 173 53 90 95 150
98 142 2 -8 10 -53 16 -100 33 -240 194 -657 373 -965 52 -90 65 -105 92 -105
26 0 40 15 87 95 108 182 245 486 311 692 33 100 81 311 89 388 3 26 11 16 70
-92 112 -201 137 -241 157 -248 27 -8 50 4 65 34 44 84 151 470 177 636 37
231 -1 593 -96 930 l-26 90 30 65 29 65 17 -60 c9 -33 18 -66 21 -74 2 -7 13
-106 24 -220 11 -113 29 -300 40 -416 11 -115 20 -218 20 -229 0 -10 15 -33
34 -52 29 -29 41 -34 81 -34 59 0 87 26 170 160 266 429 451 822 485 1030 51
305 -175 857 -512 1251 l-48 57 29 118 c115 458 155 794 132 1102 -35 470
-163 917 -410 1427 -97 200 -136 269 -311 540 -178 277 -308 460 -476 670
-108 135 -132 153 -185 134z m-115 -450 c-60 -190 -216 -545 -272 -617 -26
-34 -80 -39 -114 -10 l-26 23 55 100 c99 181 235 419 281 490 89 141 118 146
76 14z m-381 -710 c47 -13 48 -34 7 -106 -39 -67 -66 -88 -94 -69 -40 26 -46
135 -10 171 18 18 45 19 97 4z m-454 -543 c76 -46 216 -107 334 -145 506 -162
1144 -118 1575 109 52 28 96 49 98 48 8 -9 87 -220 117 -313 118 -367 162
-625 161 -955 -2 -361 -35 -547 -234 -1295 -106 -397 -181 -701 -236 -954 -56
-262 -71 -293 -156 -335 -51 -25 -62 -26 -174 -24 l-119 3 5 40 c3 22 5 92 5
155 0 100 -4 126 -29 200 -39 116 -104 243 -193 378 -144 219 -188 243 -275
151 -102 -109 -262 -381 -312 -532 -26 -79 -39 -186 -31 -270 3 -44 9 -86 12
-93 9 -24 -230 -19 -283 5 -89 40 -103 71 -153 312 -59 288 -100 461 -207 878
-143 555 -180 716 -216 921 -32 179 -33 194 -33 465 0 262 2 290 29 440 43
248 113 502 199 725 14 36 30 77 36 93 6 15 13 27 17 27 3 0 32 -15 63 -34z
m-376 -3058 c16 -24 -19 -165 -43 -178 -25 -13 -90 1 -104 23 -9 14 -3 32 27
92 21 40 46 76 55 78 29 8 55 3 65 -15z m-87 -300 c11 -11 10 -38 -1 -143 -8
-71 -17 -193 -21 -270 -8 -164 -6 -165 -80 65 -44 137 -46 150 -41 230 2 47
11 98 18 114 13 27 16 28 63 22 27 -3 55 -11 62 -18z m690 -545 c46 -26 58
-28 191 -31 122 -3 143 -6 147 -20 3 -10 19 -82 35 -162 77 -378 221 -952 248
-988 11 -15 36 -35 57 -46 32 -16 44 -17 76 -7 65 19 83 48 123 193 75 275
207 814 228 933 18 103 6 95 133 95 114 0 196 16 244 47 13 8 26 12 29 9 15
-15 75 -314 94 -466 26 -216 22 -441 -10 -585 -40 -174 -91 -361 -119 -439
-29 -78 -30 -79 -44 -55 -9 13 -67 112 -131 219 -156 264 -144 253 -144 139 0
-286 -126 -670 -360 -1092 l-76 -137 -24 42 c-151 264 -255 503 -328 752 -47
159 -68 298 -67 445 1 70 -3 120 -8 115 -4 -5 -70 -115 -145 -244 -75 -129
-140 -239 -145 -243 -10 -12 -33 50 -79 215 -89 316 -95 360 -95 598 0 191 3
232 27 365 33 181 80 375 90 375 3 0 26 -12 53 -27z"/>
<path d="M5525 7124 c-16 -2 -86 -9 -155 -15 -153 -13 -298 -43 -367 -75 -41
-20 -55 -33 -72 -69 -12 -25 -21 -49 -21 -54 0 -5 -3 -11 -7 -13 -5 -1 -17
-20 -27 -41 -25 -48 -102 -126 -162 -164 -28 -18 -105 -53 -117 -53 -12 0 -45
-37 -62 -71 -49 -94 -101 -483 -91 -689 13 -294 118 -491 314 -589 158 -80
468 -114 830 -93 476 28 668 157 751 507 52 220 50 729 -4 940 -67 264 -183
384 -436 451 -91 25 -290 40 -374 28z m-222 -336 c2 -7 2 -99 -1 -204 -4 -141
-2 -193 7 -198 7 -4 33 2 59 15 57 27 177 37 242 19 60 -16 122 -80 141 -146
11 -38 14 -123 14 -379 l0 -330 -130 0 -130 0 -5 300 c-4 215 -9 306 -18 322
-18 32 -46 45 -75 34 -30 -12 -83 -74 -92 -110 -4 -14 -10 -143 -14 -286 l-6
-260 -130 0 -130 0 -3 597 -2 597 32 6 c18 3 69 11 113 19 104 18 122 19 128
4z"/>
</g>
</svg>
